<svg xmlns="http://www.w3.org/2000/svg" viewBox="0 0 72.2 77"><path fill="#4EA29E" d="M65.9 77H6.4C2.9 77 .1 74.2.1 70.7V11.3C.1 7.8 2.9 5 6.4 5h59.5c3.5 0 6.3 2.8 6.3 6.3v59.5c0 3.4-2.8 6.2-6.3 6.2z"/><path fill="#F3F3F3" d="M65.8 72.1H6.3c-3.5 0-6.3-2.8-6.3-6.3V6.3C0 2.8 2.8 0 6.3 0h59.5c3.5 0 6.3 2.8 6.3 6.3v59.5c0 3.5-2.8 6.3-6.3 6.3z"/><path fill="#53BBB4" d="M72.1 23.8v36.6c0 6.5-5.2 11.7-11.7 11.7H11.7C5.2 72.1 0 66.9 0 60.4V22.6"/><path fill="#E6E6E6" d="M0 22.6V11.7C0 5.2 5.2 0 11.7 0h48.7c6.5 0 11.7 5.2 11.7 11.7v12.1"/><path fill="#3D3D3D" d="M16.5 23.2H.2L15.9 0h16.3zM46.7 23.2H30.4L46.1 0h16.3z"/></svg>