<svg xmlns="http://www.w3.org/2000/svg" xmlns:xlink="http://www.w3.org/1999/xlink"><symbol viewBox="0 0 72.2 77" id="calendar"><path fill="#CECECE" d="M65.9 77H6.4C2.9 77 .1 74.2.1 70.7V11.3C.1 7.8 2.9 5 6.4 5h59.5c3.5 0 6.3 2.8 6.3 6.3v59.5c0 3.4-2.8 6.2-6.3 6.2z"/><path fill="#F3F3F3" d="M65.8 72.1H6.3c-3.5 0-6.3-2.8-6.3-6.3V6.3C0 2.8 2.8 0 6.3 0h59.5c3.5 0 6.3 2.8 6.3 6.3v59.5c0 3.5-2.8 6.3-6.3 6.3z"/><text transform="translate(19.444 63.817)" fill="#74797E" font-family="'GothamRounded-Light'" font-size="47.847">8</text><path fill="#E15258" d="M13.9 13.4h44.2v8.7H13.9z"/></symbol><symbol viewBox="0 0 18 18" id="camera"><path d="M5.344 10.688a3.656 3.656 0 1 0 7.312 0 3.656 3.656 0 0 0-7.312 0zM16.875 4.5h-3.938c-.281-1.125-.563-2.25-1.688-2.25h-4.5c-1.125 0-1.406 1.125-1.688 2.25H1.123c-.619 0-1.125.506-1.125 1.125V15.75c0 .619.506 1.125 1.125 1.125h15.75c.619 0 1.125-.506 1.125-1.125V5.625c0-.619-.506-1.125-1.125-1.125zM9 15.68a4.992 4.992 0 1 1 0-9.984 4.992 4.992 0 0 1 0 9.984zm7.875-7.805h-2.25V6.75h2.25v1.125z"/></symbol><symbol viewBox="0 0 72.2 77" id="favorites"><path fill="#5E4F89" d="M65.9 77H6.4C2.9 77 .1 74.2.1 70.7V11.3C.1 7.8 2.9 5 6.4 5h59.5c3.5 0 6.3 2.8 6.3 6.3v59.5c0 3.4-2.8 6.2-6.3 6.2z"/><path fill="#7859B5" d="M65.8 72.1H6.3c-3.5 0-6.3-2.8-6.3-6.3V6.3C0 2.8 2.8 0 6.3 0h59.5c3.5 0 6.3 2.8 6.3 6.3v59.5c0 3.5-2.8 6.3-6.3 6.3z"/><path fill="#E4DEF0" d="M36 9.9l6.6 20.5h21.6L46.8 42.6l6.6 20.3L36 50.2 18.6 62.7l6.6-20L7.8 30.4h21.5z"/></symbol><symbol viewBox="0 0 72.2 77" id="social"><path fill="#3997B5" d="M65.9 77H6.4C2.9 77 .1 74.2.1 70.7V11.3C.1 7.8 2.9 5 6.4 5h59.5c3.5 0 6.3 2.8 6.3 6.3v59.5c0 3.4-2.8 6.2-6.3 6.2z"/><path fill="#39ADD1" d="M65.8 72.1H6.3c-3.5 0-6.3-2.8-6.3-6.3V6.3C0 2.8 2.8 0 6.3 0h59.5c3.5 0 6.3 2.8 6.3 6.3v59.5c0 3.5-2.8 6.3-6.3 6.3z"/><g fill="#FFF"><path d="M59 28.5l-7-3.8c-2.2-1.2-4.9-1.2-7.2-.1-4.1 2-8.3 5.5-10.2 6.9L14.5 46.6 32 54.1c7.7 3.3 16.6-.3 19.8-8.1L59 28.5z"/><path d="M18.8 22.9l26 7.9-17.3 7.9z"/></g></symbol><symbol viewBox="0 0 72.2 77" id="store"><path fill="#1D75B7" d="M65.9 77H6.4C2.9 77 .1 74.2.1 70.7V11.3C.1 7.8 2.9 5 6.4 5h59.5c3.5 0 6.3 2.8 6.3 6.3v59.5c0 3.4-2.8 6.2-6.3 6.2z"/><path fill="#459BDC" d="M65.8 72.1H6.3c-3.5 0-6.3-2.8-6.3-6.3V6.3C0 2.8 2.8 0 6.3 0h59.5c3.5 0 6.3 2.8 6.3 6.3v59.5c0 3.5-2.8 6.3-6.3 6.3z"/><circle fill="none" stroke="#FFF" stroke-width="3.337" stroke-miterlimit="10" cx="35.4" cy="36" r="27.5"/><path fill="none" stroke="#FFF" stroke-width="3" stroke-miterlimit="10" d="M48.1 50.1L35.4 24.4 24.2 50.1m-5.7-11.2h35"/></symbol><symbol viewBox="0 0 72.2 77" id="videos"><path fill="#4EA29E" d="M65.9 77H6.4C2.9 77 .1 74.2.1 70.7V11.3C.1 7.8 2.9 5 6.4 5h59.5c3.5 0 6.3 2.8 6.3 6.3v59.5c0 3.4-2.8 6.2-6.3 6.2z"/><path fill="#F3F3F3" d="M65.8 72.1H6.3c-3.5 0-6.3-2.8-6.3-6.3V6.3C0 2.8 2.8 0 6.3 0h59.5c3.5 0 6.3 2.8 6.3 6.3v59.5c0 3.5-2.8 6.3-6.3 6.3z"/><path fill="#53BBB4" d="M72.1 23.8v36.6c0 6.5-5.2 11.7-11.7 11.7H11.7C5.2 72.1 0 66.9 0 60.4V22.6"/><path fill="#E6E6E6" d="M0 22.6V11.7C0 5.2 5.2 0 11.7 0h48.7c6.5 0 11.7 5.2 11.7 11.7v12.1"/><path fill="#3D3D3D" d="M16.5 23.2H.2L15.9 0h16.3zm30.2 0H30.4L46.1 0h16.3z"/></symbol><symbol viewBox="0 0 72.2 77" id="weather"><path fill="#3997B5" d="M65.9 77H6.4C2.9 77 .1 74.2.1 70.7V11.3C.1 7.8 2.9 5 6.4 5h59.5c3.5 0 6.3 2.8 6.3 6.3v59.5c0 3.4-2.8 6.2-6.3 6.2z"/><path fill="#39ADD1" d="M65.8 72.1H6.3c-3.5 0-6.3-2.8-6.3-6.3V6.3C0 2.8 2.8 0 6.3 0h59.5c3.5 0 6.3 2.8 6.3 6.3v59.5c0 3.5-2.8 6.3-6.3 6.3z"/><circle fill="#FFDC10" cx="25.4" cy="36" r="12.4"/><circle fill="#FFF" cx="28.8" cy="48.2" r="12.1"/><circle fill="#FFF" cx="54.8" cy="48.2" r="12.1"/><circle fill="#FFF" cx="41.3" cy="43.1" r="15.3"/></symbol></svg>