<svg xmlns="http://www.w3.org/2000/svg" viewBox="0 0 251.2 474.4"><path fill="#7E7096" d="M166.3 297.8c-3.1-.2-6.1-1.7-8.1-4.1-5.2-5.9-4.9-16.4-5.7-23.7-1-9.5-2-18.9-3.1-28.4-3.3-28.6-7.4-57-10.9-85.6-.8-6.7-.9-15 4.8-18.5 4.8-2.9 11.3-.6 14.8 3.7 3.6 4.3 4.9 9.9 5.9 15.4 7.1 35.8 9 72.4 11 108.9.4 8.2 5.8 29.1-5.8 32.1-.9.2-1.9.3-2.9.2z"/><path fill="#897C9F" d="M60 472.8c24 1.4 48.1 1.9 72.2 1.3 6.6-.2 14.1-.8 18.3-5.9 3-3.7 3.4-8.7 3.8-13.4 6.7-94.8 6.5-190.2-.4-285-1-13.5-2.6-28.1-11.9-37.9-8.4-8.8-21.2-11.6-33.3-12.5-15.2-1.1-30.5.3-45.4 3.4-10.2 2.1-20.9 5.4-27.4 13.5-6.4 8-7.4 19-7.9 29.3-5 92.9 0 185.9 5.1 278.8.4 8 1.3 16.8 7.1 22.3 5.1 4.9 12.7 5.7 19.8 6.1z"/><path fill="#FABCA1" d="M50.6 132.6c.3 7.1-5.4 10.4-12.5 10.7s-13-5.3-13.3-12.4c-.3-7.1 5.3-13 12.4-13.3 7.1-.3 13.3 2.7 13.6 9.8M128.5 127.6c.2 6.1 5.2 8.6 11.3 8.3 6.1-.2 10.8-5.3 10.6-11.4-.2-6.1-5.3-10.8-11.4-10.6-6.1.2-11.2 3.1-11 9.1"/><path fill="#FABCA1" d="M47.703 81.995l81.751-2.923 3.252 90.945-81.751 2.923z"/><path fill="#D4D5D8" d="M128.8 91.8l3 23.6 15.1-5.6-8.5-5.8.3-11.9z"/><path fill="#FFF" d="M58.5 116.9l35.8-7.9-.4-12.4-36.7 7zM104.7 106.3l1.3 8.6 29.5 2.8.3-11.7z"/><path fill="#3F3764" d="M104.2 145.6l-21.8 3.2s15.1 7.5 20.5 6.9c4-.4 18.6-10.7 18.6-10.7l-17.3.6z"/><path fill="#D4D5D8" d="M60.9 89.1l-12.1 14 5.5 17.1-5.1 1.7-17.3-7.9 9-3.8-1.1-16.1z"/><path fill="#E8E7E9" d="M102.1 78.4L79.2 93.5l-48 1.8 13-7.2L57 71.6l46.4-1.7z"/><path fill="#E8E7E9" d="M90.4 82.6l21 12.7 36.6 1.8 2.5-10.8-8.5.3-11.7-16.9-33.1-.1z"/><path fill="#F7A582" d="M45 130s-10.4-4.2-12.4 3.5l9.2-.3 1.2 2.3 2.2-.1-.2-5.4zM135.6 121.9s9.2-4.5 11.6 2.4l-8.4.3-.9 2.2-2 .1-.3-5z"/><path opacity=".2" fill="#3F3764" d="M48.2 130.1l24.5 19.8 29-10.4 26.9 4 2.9-5.1 1.8-10.5c3.3.9 3.6 14.7 2.8 18.1-1.9 8.7-4.3 21.1-2.5 29.9 1 5.1 4 9.9 5.2 15.1 1.2 5.6 1.8 11.4 1.9 17.1.2 11.6-1.4 23.1-3 34.5-3 21.3-6 42.6-9 63.8-1.5 10.6-3 21.3-4.5 31.9-1.3 9.4-3.7 18-5.4 27.3-1 5.9-6.1 34.2-17.4 27-2.1-1.3-3.3-3.7-4.4-6-5.6-12.2-9.3-25.2-12.1-38.3-2.8-13.3-3.3-27.2-6.4-40.3-3.2-13.5-8.1-26.6-10.9-40.3-1.9-9-2.9-18.2-4-27.3-.5-4.5-.4-9.8-1.8-14.1-1.1-3.5-3.8-6.5-5.7-9.9-8-14.2-11-31.3-8.1-47.3"/><path fill="#FFF" d="M47.9 120.9c4.6 3.7 9.3 7.5 13.9 11.2 2.9 2.3 6 4.6 8.7 7.1 2 1.8 3 2.2 5.8 1.4 2.6-.7 5.1-2.2 6.9-4.2 1.5-1.7 2.7-3.7 4.5-5 1.6-1.2 3.5-1.7 5.5-1.9 3.9-.3 7.8.3 11.6 1 1.9.3 3.7.7 5.6 1 2.7.5 2.4-.2 4.6-1.5.8-.5 1.7-.7 2.6-.5.9.2 1.5.9 2.2 1.5.9.9 1.9 1.8 3 2.6 1 .8 2.1 1.5 3.4 1.6 2.7.2 4-4.1 5.1-6l1.8-10.5c3.3.9 3.6 14.7 2.8 18.1-1.9 8.7-4.3 21.1-2.5 29.9 1 5.1 4 9.9 5.2 15.1 1.2 5.6 1.8 11.4 1.9 17.1.2 11.6-1.4 23.1-3 34.5-3 21.3-6 42.6-9 63.8-1.5 10.6-3 21.3-4.5 31.9-1.3 9.4-3.7 18-5.4 27.3-1 5.9-6.1 34.2-17.4 27-2.1-1.3-3.3-3.7-4.4-6-5.6-12.2-9.3-25.2-12.1-38.3-2.8-13.3-3.3-27.2-6.4-40.3-3.2-13.5-8.1-26.6-10.9-40.3-1.9-9-2.9-18.2-4-27.3-.5-4.5-.4-9.8-1.8-14.1-1.1-3.5-3.8-6.5-5.7-9.9-8-14.2-11-31.3-8.1-47.3"/><path opacity=".2" fill="#3F3764" d="M96 132c-.2-4.6 3.4-7.5 8.1-7.7s10.5 3.2 10.6 7.9c.2 4.6 1 8.3-3.7 9.6-4.4 1.2-14.8-5.1-15-9.8z"/><path fill="#FABCA1" d="M95.9 131.2c-.2-4.6 3.5-8.5 8.1-8.7s10.6 3.4 10.8 8-3.4 8.5-8.1 8.7-10.6-3.4-10.8-8z"/><path fill="#415059" d="M113.1 150.6c2.3-1.5 4.6-3 6.8-4.5.9-.6 1.6-1 .2-1.4-1.2-.4-3.2.3-4.3.6-1.8.5-3.5 1.2-5.3 1.4-2 .3-3.2-.5-5-1-1.4-.3-2.4 1-3.5 1.7-1.4.8-2.9 1.3-4.5 1.5-2.7.3-5.4-.1-8.2-.4-.9-.1-5.2-.9-5.5.2-.4 1.3 3.1 2.3 3.9 2.7"/><path fill="#E36564" d="M87.8 151.3c4.9 2.1 11.8 4.8 15.1 4.4 1.9-.2 6.3-2.6 10.3-5.2"/><path fill="#E8E7E9" d="M91.1 159.8s14.2 12.6 23.4-2.5-3.5 30.2-23.4 2.5z"/><path fill="#7E7096" d="M42.1 471.3c-5.9-74.1-7.1-148.6-3.8-222.9 1.3-28.7 3.3-57.4 4.8-86.1.4-6.8-.1-15-6.2-18.1-4.9-2.5-11.3.2-14.5 4.7-3.3 4.5-4.1 10.3-4.8 15.8-4.5 36.2-3.8 72.9-3.2 109.4l3 167.6c.1 7.9.4 16.3 4.5 23 4.1 6.7 13.6 10.9 20.2 6.6z"/><path fill="#415059" d="M69.5 122.3c-.1-1.8 1.2-5.9 3-6 1.8-.1 3.3 4 3.4 5.7.1 1.8-1.3 3.3-3.1 3.3-1.7.2-3.2-1.2-3.3-3zM118 119.5c-.1-1.4 1-3.3 2.5-3.4 1.4-.1 2.7 1.8 2.7 3.2.1 1.4-1.1 2.6-2.5 2.7-1.5.1-2.7-1-2.7-2.5z"/><path fill="#F7A582" d="M66.5 124l12.1-1.4S75 135.9 66.5 124zM117 119.4h7.5c0-.1-3.1 7.9-7.5 0z"/><g><path fill="#897C9F" d="M120.8 50.9c58.6-10.3 95.8 5.2 9.7 40.1C24.2 134.2-39.9 96.3 27.9 73.1s38.3-12.6 92.9-22.2z"/><path fill="#7E7096" d="M50.5 76.2c-1-.1 11.6-47.3 11.6-47.3L58 44.5S10 63.8 1.4 48.3c0 0 33.7-12.7 53.2-36.4 20.6-25 60.7-11.7 70.1 49.6.1.1-14 20.4-74.2 14.7z"/><path fill="#72648D" d="M127.3 58.7s0 17.2-45 23.3c-35.1 4.8-34-8.2-34.1-10.9l5.4-10.4s5.1-1.9 68.1-15.5l5.6 13.5zM50.7 47l7.1-1.6 4.3-16.5z"/><path fill="#FCDBEE" d="M127.3 58.7s-.3 12.9-45.2 19c-35.1 4.8-33.8-4-33.9-6.6l5.4-10.4s3.5-3.5 68.1-15.5l5.6 13.5z"/></g><g><path fill="#7E7096" d="M228.5 150.3c5.8.7 11.9 3.4 15.3 6.9 10.5 10.9 6.2 30.1 6.4 44l.9 52.6c.1 4.3.1 8.9-2 12.7-3.7 6.9-13.1 9-20.7 6.8-7.6-2.1-13.8-7.3-20.1-12.1-2.7-2-5.9-4.1-9.3-3.5-2.7.5-4.7 2.6-6.4 4.7-6 7.5-9 15.5-12.4 24.3-2.3 5.9-6.3 14.2-13.7 14.3-5.6.1-10-5.2-10.9-10.7-.9-5.5.8-11 2.7-16.3 12-34.5 21.4-79.3 38.2-111.7 4-7.7 14-9 23.6-11.7 2.5-.6 5.5-.7 8.4-.3z"/><path fill="#675985" d="M231 264.2c3.3 2.2 8 2.6 11.1.1 3.9-3.1 3.8-9 3.3-14-1.3-14.2-2.6-28.3-3.9-42.5-1.3-14.1-1.6-25-9.6-37-2.1-3.2-4.9-6.5-8.6-7-7.3-.9-11.9 8.5-13.3 14.3-2.1 8.8 1.1 18.7 4.4 26.8 4.1 10.1 9.5 20.1 10.2 31 .3 4.7-.3 9.4 0 14s1.5 9.5 4.8 12.9c.4.5 1 1 1.6 1.4z"/><path fill="#A26C4B" d="M245.9 448.1c-2.2-22.5-13.4-235.2-15.6-257.7-3.9-.2-7.7-.5-11.6-.7 1.1 20.6 11.2 231.3 12.3 251.8.2 4.3.6 8.9 3.4 12.2 2.8 3.2 11.7-3.7 11.5-5.6z"/><path fill="#8E5F44" d="M232 215.8c-.8-12.6-1.4-21.6-1.8-25.4-3.9-.2-7.7-.5-11.6-.7.2 3.5.6 12.7 1.3 25.5"/><path fill="#FABCA1" d="M202.3 188.7c.4.7 2.5 3.7 3.4 3.6 0 4.1-1 6.2 2.4 9.4 3.2 3 5.3 2.8 9.3 2.8 4.1 0 8.6 2.4 12.6 1.8 4.2-.6 9.4-4.9 13.2-7 2-1.1 4.1-2.3 5.5-4.1 2-2.7 2.2-6.3 2.3-9.7.2-8.2-.1-17.4-4.6-24.6-1.9-3-4.6-5.5-8-6.6-2-.6-8.9-2.1-9.4.5-.2 1.2 1 2.4.6 3.7-.4 1.3-1.5 1.9-2.8 2-3.9.5-7.8.1-11.8 1-3.6.8-7 2.4-9.4 5.3-1.6 1.8-2.3 3.9-2 6.3.2 1.4 1 2.5.8 3.9-.5 4.1-4.3 7.3-2.1 11.7z"/><path fill="#A26C4B" d="M226.6 114.2c-.9-12.1-1.9-24.2-2.9-36.2 0 0-3.3 2.9-4.7 2.9-1.9.1-6.8-3.6-6.8-3.6.2 6.6.4 12.4.4 13.3.9 18.3 1.7 36.7 2.6 55 .1 3 .3 5.9.5 8.9.1.9 1.2 9.2 1.2 9.2s4.3-1.1 6.8-1c1.2.1 3.1-1.6 4.2-2.2.8-.5 1.3-1.5 1.6-2.9 1-4.7-.6-13.2-.8-16-.7-9.1-1.4-18.2-2.1-27.4z"/><path fill="#8E5F44" d="M223.7 78l-1.2-14.4c-.1-1.7-.3-3.4-.4-5-3.9-.4-7.7-.8-11.6-1.1.8.1 1.4 10.7 1.7 19.9 0 0 4.9 3.7 6.8 3.6 1.4-.1 4.7-3 4.7-3z"/><path fill="#F4825C" d="M240.5 53.2l-1.4-31.6h7.7l-29.7-1z"/><path fill="#EF5132" d="M196.9 23.7v29.5l20.2-32.6zM218 53.2h-21.1L219.1 74l21.4-20.8z"/><path fill="#F4825C" d="M206.1 38.6h11.5l-.5-18-20.2 32.6H218l-.1-.4z"/><path fill="#F8B49D" d="M217.6 38.6h12.2L218 52.8h-.1l.1.4h22.5l-23.4-32.6z"/><path fill="#F69976" d="M188.8 57.9L219.1 74l-22.2-20.8z"/><path fill="#F4825C" d="M196.9 23.7h-9.3l1.2 34.2 8.1-4.7z"/><path fill="#F8B49D" d="M216.6 5.6l-29 18.1h9.3z"/><path fill="#F4825C" d="M217.1 20.6l-.5-15-19.7 18.1zM240.5 53.2L219.1 74l29-18.2z"/><path fill="#EF5132" d="M246.8 21.6l-30.2-16 .5 15z"/><path fill="#F69976" d="M240.5 53.2l7.6 2.6-1.3-34.2h-7.7zM217.9 52.8h.1l11.8-14.2h-23.7z"/></g></svg>