<svg xmlns="http://www.w3.org/2000/svg" viewBox="0 0 72.2 77"><path fill="#1D75B7" d="M65.9 77H6.4C2.9 77 .1 74.2.1 70.7V11.3C.1 7.8 2.9 5 6.4 5h59.5c3.5 0 6.3 2.8 6.3 6.3v59.5c0 3.4-2.8 6.2-6.3 6.2z"/><path fill="#459BDC" d="M65.8 72.1H6.3c-3.5 0-6.3-2.8-6.3-6.3V6.3C0 2.8 2.8 0 6.3 0h59.5c3.5 0 6.3 2.8 6.3 6.3v59.5c0 3.5-2.8 6.3-6.3 6.3z"/><circle fill="none" stroke="#FFF" stroke-width="3.337" stroke-miterlimit="10" cx="35.4" cy="36" r="27.5"/><path fill="none" stroke="#FFF" stroke-width="3" stroke-miterlimit="10" d="M48.1 50.1L35.4 24.4 24.2 50.1M18.5 38.9h35"/></svg>