<svg xmlns="http://www.w3.org/2000/svg" viewBox="0 0 72.2 77"><path fill="#CECECE" d="M65.9 77H6.4C2.9 77 .1 74.2.1 70.7V11.3C.1 7.8 2.9 5 6.4 5h59.5c3.5 0 6.3 2.8 6.3 6.3v59.5c0 3.4-2.8 6.2-6.3 6.2z"/><path fill="#F3F3F3" d="M65.8 72.1H6.3c-3.5 0-6.3-2.8-6.3-6.3V6.3C0 2.8 2.8 0 6.3 0h59.5c3.5 0 6.3 2.8 6.3 6.3v59.5c0 3.5-2.8 6.3-6.3 6.3z"/><text transform="translate(19.444 63.817)" fill="#74797E" font-family="'GothamRounded-Light'" font-size="47.847">8</text><path fill="#E15258" d="M13.9 13.4h44.2v8.7H13.9z"/></svg>