<svg xmlns="http://www.w3.org/2000/svg" viewBox="0 0 72.2 77"><path fill="#3997B5" d="M65.9 77H6.4C2.9 77 .1 74.2.1 70.7V11.3C.1 7.8 2.9 5 6.4 5h59.5c3.5 0 6.3 2.8 6.3 6.3v59.5c0 3.4-2.8 6.2-6.3 6.2z"/><path fill="#39ADD1" d="M65.8 72.1H6.3c-3.5 0-6.3-2.8-6.3-6.3V6.3C0 2.8 2.8 0 6.3 0h59.5c3.5 0 6.3 2.8 6.3 6.3v59.5c0 3.5-2.8 6.3-6.3 6.3z"/><g fill="#FFF"><path d="M59 28.5l-7-3.8c-2.2-1.2-4.9-1.2-7.2-.1-4.1 2-8.3 5.5-10.2 6.9L14.5 46.6 32 54.1c7.7 3.3 16.6-.3 19.8-8.1L59 28.5z"/><path d="M18.8 22.9l26 7.9-17.3 7.9z"/></g></svg>