<svg xmlns="http://www.w3.org/2000/svg" viewBox="0 0 72.2 77"><path fill="#3997B5" d="M65.9 77H6.4C2.9 77 .1 74.2.1 70.7V11.3C.1 7.8 2.9 5 6.4 5h59.5c3.5 0 6.3 2.8 6.3 6.3v59.5c0 3.4-2.8 6.2-6.3 6.2z"/><path fill="#39ADD1" d="M65.8 72.1H6.3c-3.5 0-6.3-2.8-6.3-6.3V6.3C0 2.8 2.8 0 6.3 0h59.5c3.5 0 6.3 2.8 6.3 6.3v59.5c0 3.5-2.8 6.3-6.3 6.3z"/><circle fill="#FFDC10" cx="25.4" cy="36" r="12.4"/><circle fill="#FFF" cx="28.8" cy="48.2" r="12.1"/><circle fill="#FFF" cx="54.8" cy="48.2" r="12.1"/><circle fill="#FFF" cx="41.3" cy="43.1" r="15.3"/></svg>